<!DOCTYPE svg PUBLIC "-//W3C//DTD SVG 1.1//EN" "http://www.w3.org/Graphics/SVG/1.1/DTD/svg11.dtd">
<svg xmlns="http://www.w3.org/2000/svg" xmlns:xlink="http://www.w3.org/1999/xlink" xmlns:jfreesvg="http://www.jfree.org/jfreesvg/svg" width="410" height="290" text-rendering="auto" shape-rendering="auto">
<defs></defs>
<rect x="0" y="0" width="410" height="290" style="fill: rgb(255,255,255); fill-opacity: 1.0" /><rect x="10" y="250" width="70" height="30" style="fill: rgb(255,255,255); fill-opacity: 1.0" /><line x1="10" y1="250" x2="79" y2="250" style="stroke-width: 1.0;stroke: rgb(0,0,0);stroke-opacity: 1.0;stroke-linecap: square;" /><line x1="80" y1="250" x2="80" y2="279" style="stroke-width: 1.0;stroke: rgb(0,0,0);stroke-opacity: 1.0;stroke-linecap: square;" /><line x1="80" y1="280" x2="11" y2="280" style="stroke-width: 1.0;stroke: rgb(0,0,0);stroke-opacity: 1.0;stroke-linecap: square;" /><line x1="10" y1="280" x2="10" y2="251" style="stroke-width: 1.0;stroke: rgb(0,0,0);stroke-opacity: 1.0;stroke-linecap: square;" /><g ><text x="39" y="273" style="fill: rgb(0,0,0); fill-opacity: 1.0; font-family: sans-serif; font-size: 20px;" >5</text></g><rect x="50" y="170" width="70" height="30" style="fill: rgb(255,255,255); fill-opacity: 1.0" /><line x1="85" y1="200" x2="45" y2="250" style="stroke-width: 1.0;stroke: rgb(0,0,0);stroke-opacity: 1.0;stroke-linecap: square;" /><line x1="50" y1="170" x2="119" y2="170" style="stroke-width: 1.0;stroke: rgb(0,0,0);stroke-opacity: 1.0;stroke-linecap: square;" /><line x1="120" y1="170" x2="120" y2="199" style="stroke-width: 1.0;stroke: rgb(0,0,0);stroke-opacity: 1.0;stroke-linecap: square;" /><line x1="120" y1="200" x2="51" y2="200" style="stroke-width: 1.0;stroke: rgb(0,0,0);stroke-opacity: 1.0;stroke-linecap: square;" /><line x1="50" y1="200" x2="50" y2="171" style="stroke-width: 1.0;stroke: rgb(0,0,0);stroke-opacity: 1.0;stroke-linecap: square;" /><g ><text x="79" y="193" style="fill: rgb(0,0,0); fill-opacity: 1.0; font-family: sans-serif; font-size: 20px;" >4</text></g><rect x="130" y="170" width="70" height="30" style="fill: rgb(255,255,255); fill-opacity: 1.0" /><line x1="130" y1="170" x2="199" y2="170" style="stroke-width: 1.0;stroke: rgb(0,0,0);stroke-opacity: 1.0;stroke-linecap: square;" /><line x1="200" y1="170" x2="200" y2="199" style="stroke-width: 1.0;stroke: rgb(0,0,0);stroke-opacity: 1.0;stroke-linecap: square;" /><line x1="200" y1="200" x2="131" y2="200" style="stroke-width: 1.0;stroke: rgb(0,0,0);stroke-opacity: 1.0;stroke-linecap: square;" /><line x1="130" y1="200" x2="130" y2="171" style="stroke-width: 1.0;stroke: rgb(0,0,0);stroke-opacity: 1.0;stroke-linecap: square;" /><g ><text x="159" y="193" style="fill: rgb(0,0,0); fill-opacity: 1.0; font-family: sans-serif; font-size: 20px;" >6</text></g><rect x="90" y="90" width="70" height="30" style="fill: rgb(255,255,255); fill-opacity: 1.0" /><line x1="125" y1="120" x2="85" y2="170" style="stroke-width: 1.0;stroke: rgb(0,0,0);stroke-opacity: 1.0;stroke-linecap: square;" /><line x1="125" y1="120" x2="165" y2="170" style="stroke-width: 1.0;stroke: rgb(0,0,0);stroke-opacity: 1.0;stroke-linecap: square;" /><line x1="90" y1="90" x2="159" y2="90" style="stroke-width: 1.0;stroke: rgb(0,0,0);stroke-opacity: 1.0;stroke-linecap: square;" /><line x1="160" y1="90" x2="160" y2="119" style="stroke-width: 1.0;stroke: rgb(0,0,0);stroke-opacity: 1.0;stroke-linecap: square;" /><line x1="160" y1="120" x2="91" y2="120" style="stroke-width: 1.0;stroke: rgb(0,0,0);stroke-opacity: 1.0;stroke-linecap: square;" /><line x1="90" y1="120" x2="90" y2="91" style="stroke-width: 1.0;stroke: rgb(0,0,0);stroke-opacity: 1.0;stroke-linecap: square;" /><g ><text x="119" y="113" style="fill: rgb(0,0,0); fill-opacity: 1.0; font-family: sans-serif; font-size: 20px;" >6</text></g><rect x="250" y="250" width="70" height="30" style="fill: rgb(255,255,255); fill-opacity: 1.0" /><line x1="250" y1="250" x2="319" y2="250" style="stroke-width: 1.0;stroke: rgb(0,0,0);stroke-opacity: 1.0;stroke-linecap: square;" /><line x1="320" y1="250" x2="320" y2="279" style="stroke-width: 1.0;stroke: rgb(0,0,0);stroke-opacity: 1.0;stroke-linecap: square;" /><line x1="320" y1="280" x2="251" y2="280" style="stroke-width: 1.0;stroke: rgb(0,0,0);stroke-opacity: 1.0;stroke-linecap: square;" /><line x1="250" y1="280" x2="250" y2="251" style="stroke-width: 1.0;stroke: rgb(0,0,0);stroke-opacity: 1.0;stroke-linecap: square;" /><g ><text x="279" y="273" style="fill: rgb(0,0,0); fill-opacity: 1.0; font-family: sans-serif; font-size: 20px;" >2</text></g><rect x="330" y="250" width="70" height="30" style="fill: rgb(255,255,255); fill-opacity: 1.0" /><line x1="330" y1="250" x2="399" y2="250" style="stroke-width: 1.0;stroke: rgb(0,0,0);stroke-opacity: 1.0;stroke-linecap: square;" /><line x1="400" y1="250" x2="400" y2="279" style="stroke-width: 1.0;stroke: rgb(0,0,0);stroke-opacity: 1.0;stroke-linecap: square;" /><line x1="400" y1="280" x2="331" y2="280" style="stroke-width: 1.0;stroke: rgb(0,0,0);stroke-opacity: 1.0;stroke-linecap: square;" /><line x1="330" y1="280" x2="330" y2="251" style="stroke-width: 1.0;stroke: rgb(0,0,0);stroke-opacity: 1.0;stroke-linecap: square;" /><g ><text x="359" y="273" style="fill: rgb(0,0,0); fill-opacity: 1.0; font-family: sans-serif; font-size: 20px;" >8</text></g><rect x="290" y="170" width="70" height="30" style="fill: rgb(255,255,255); fill-opacity: 1.0" /><line x1="325" y1="200" x2="285" y2="250" style="stroke-width: 1.0;stroke: rgb(0,0,0);stroke-opacity: 1.0;stroke-linecap: square;" /><line x1="325" y1="200" x2="365" y2="250" style="stroke-width: 1.0;stroke: rgb(0,0,0);stroke-opacity: 1.0;stroke-linecap: square;" /><line x1="290" y1="170" x2="359" y2="170" style="stroke-width: 1.0;stroke: rgb(0,0,0);stroke-opacity: 1.0;stroke-linecap: square;" /><line x1="360" y1="170" x2="360" y2="199" style="stroke-width: 1.0;stroke: rgb(0,0,0);stroke-opacity: 1.0;stroke-linecap: square;" /><line x1="360" y1="200" x2="291" y2="200" style="stroke-width: 1.0;stroke: rgb(0,0,0);stroke-opacity: 1.0;stroke-linecap: square;" /><line x1="290" y1="200" x2="290" y2="171" style="stroke-width: 1.0;stroke: rgb(0,0,0);stroke-opacity: 1.0;stroke-linecap: square;" /><g ><text x="319" y="193" style="fill: rgb(0,0,0); fill-opacity: 1.0; font-family: sans-serif; font-size: 20px;" >5</text></g><rect x="210" y="90" width="70" height="30" style="fill: rgb(255,255,255); fill-opacity: 1.0" /><line x1="245" y1="120" x2="325" y2="170" style="stroke-width: 1.0;stroke: rgb(0,0,0);stroke-opacity: 1.0;stroke-linecap: square;" /><line x1="210" y1="90" x2="279" y2="90" style="stroke-width: 1.0;stroke: rgb(0,0,0);stroke-opacity: 1.0;stroke-linecap: square;" /><line x1="280" y1="90" x2="280" y2="119" style="stroke-width: 1.0;stroke: rgb(0,0,0);stroke-opacity: 1.0;stroke-linecap: square;" /><line x1="280" y1="120" x2="211" y2="120" style="stroke-width: 1.0;stroke: rgb(0,0,0);stroke-opacity: 1.0;stroke-linecap: square;" /><line x1="210" y1="120" x2="210" y2="91" style="stroke-width: 1.0;stroke: rgb(0,0,0);stroke-opacity: 1.0;stroke-linecap: square;" /><g ><text x="239" y="113" style="fill: rgb(0,0,0); fill-opacity: 1.0; font-family: sans-serif; font-size: 20px;" >5</text></g><rect x="150" y="10" width="70" height="30" style="fill: rgb(255,255,255); fill-opacity: 1.0" /><line x1="185" y1="40" x2="125" y2="90" style="stroke-width: 1.0;stroke: rgb(0,0,0);stroke-opacity: 1.0;stroke-linecap: square;" /><line x1="185" y1="40" x2="245" y2="90" style="stroke-width: 1.0;stroke: rgb(0,0,0);stroke-opacity: 1.0;stroke-linecap: square;" /><line x1="150" y1="10" x2="219" y2="10" style="stroke-width: 1.0;stroke: rgb(0,0,0);stroke-opacity: 1.0;stroke-linecap: square;" /><line x1="220" y1="10" x2="220" y2="39" style="stroke-width: 1.0;stroke: rgb(0,0,0);stroke-opacity: 1.0;stroke-linecap: square;" /><line x1="220" y1="40" x2="151" y2="40" style="stroke-width: 1.0;stroke: rgb(0,0,0);stroke-opacity: 1.0;stroke-linecap: square;" /><line x1="150" y1="40" x2="150" y2="11" style="stroke-width: 1.0;stroke: rgb(0,0,0);stroke-opacity: 1.0;stroke-linecap: square;" /><g ><text x="179" y="33" style="fill: rgb(0,0,0); fill-opacity: 1.0; font-family: sans-serif; font-size: 20px;" >8</text></g></svg>
